# xmcd CD database file
#
# Track frame offsets:
#	150
#	37565
#	63460
#	92087
#	118635
#	152627
#	175392
#	218377
#	246302
#
# Disc length: 3702 seconds
#
# Revision: 0
# Processed by: cddbd v1.5.2PL0 Copyright (c) Steve Scherf et al.
# Submitted via: CDex 1.70beta2
#
DISCID=6c0e7409
DTITLE=RUOCCO SIMTAINE RASSINFOSSE TRIO - A GHOST OF CHANCE
DYEAR=2007
DGENRE=Jazz
TTITLE0=I'm getting sentimental over you
TTITLE1=What will I do?
TTITLE2=A Ghost of a chance
TTITLE3=When you wish upon a star
TTITLE4=Sweet lorraine
TTITLE5=Cherokee
TTITLE6=Stardust
TTITLE7=Blues in the night
TTITLE8=Caravan
EXTD=YEAR: 2007
EXTT0=
EXTT1=
EXTT2=
EXTT3=
EXTT4=
EXTT5=
EXTT6=
EXTT7=
EXTT8=
PLAYORDER=
